<svg width="23" height="23" fill="none" xmlns="http://www.w3.org/2000/svg"><path fill-rule="evenodd" clip-rule="evenodd" d="M18.684 7.51a9.648 9.648 0 00-2.885-.438 9.651 9.651 0 00-9.652 9.651c0 1.98.597 3.82 1.62 5.352A9.652 9.652 0 011 12.862c0-5.33 4.321-9.651 9.652-9.651a9.642 9.642 0 018.032 4.3z" fill="#D8FAE8"/><path d="M8.745 7.632c-.576.596-1.893 1.89-.485 3.517 1.408 1.626 2.673 2.691 3.793 3.667s2.643.362 3.315-.386M22 11.5a10.5 10.5 0 10-4.576 8.669" stroke="#5B5B5B" stroke-width="2" stroke-linecap="round"/></svg>