<svg width="21" height="21" viewBox="0 0 21 21" fill="none" xmlns="http://www.w3.org/2000/svg">
<path d="M10.6558 10.8887C8.79242 10.9666 7.21877 9.51912 7.14094 7.65576C7.0631 5.79241 8.51055 4.21877 10.3739 4.14093C12.2373 4.0631 13.8109 5.51055 13.8887 7.3739C13.9666 9.23725 12.5191 10.8109 10.6558 10.8887Z" fill="#D8FAE8"/>
<path fill-rule="evenodd" clip-rule="evenodd" d="M20.2138 20.9998H3.90955C5.10231 17.8282 8.0994 15.5135 11.6983 15.3632C15.5536 15.2022 18.9278 17.5738 20.2138 20.9998Z" fill="#D8FAE8"/>
<circle cx="10" cy="6" r="5" stroke="#5B5B5B" stroke-width="2"/>
<path d="M1 20C2.78949 16.4337 6.37215 14 10.5 14C14.6278 14 18.2105 16.4337 20 20" stroke="#5B5B5B" stroke-width="2" stroke-linecap="round"/>
</svg>
