<svg width="23" height="23" viewBox="0 0 23 23" fill="none" xmlns="http://www.w3.org/2000/svg">
<path fill-rule="evenodd" clip-rule="evenodd" d="M18.6843 7.51029C17.7732 7.22524 16.804 7.07161 15.799 7.07161C10.4686 7.07161 6.14746 11.3927 6.14746 16.7231C6.14746 18.703 6.74361 20.5436 7.76618 22.0753C3.84523 20.8485 1 17.1878 1 12.8624C1 7.53206 5.32113 3.21094 10.6515 3.21094C14.002 3.21094 16.9538 4.91822 18.6843 7.51029Z" fill="#D8FAE8"/>
<path d="M8.74453 7.63184C8.16854 8.22816 6.85198 9.52224 8.26001 11.1486C9.66802 12.7749 10.9326 13.8402 12.0526 14.816C13.1726 15.7919 14.6965 15.1781 15.3685 14.4299" stroke="#5B5B5B" stroke-width="2" stroke-linecap="round"/>
<path d="M22 11.5C22 9.15447 21.2147 6.87647 19.7692 5.02927C18.3237 3.18206 16.3014 1.87202 14.0247 1.30805C11.748 0.744076 9.34797 0.958648 7.2074 1.91755C5.06683 2.87645 3.30896 4.52446 2.21411 6.59878C1.11925 8.6731 0.750463 11.0543 1.16654 13.3626C1.58262 15.6709 2.75961 17.7735 4.50982 19.335C6.26004 20.8965 8.48269 21.827 10.8233 21.9782C13.164 22.1293 15.4879 21.4924 17.4244 20.169" stroke="#5B5B5B" stroke-width="2" stroke-linecap="round"/>
</svg>
